<svg xmlns="http://www.w3.org/2000/svg" viewBox="0 0 512 512" id="man-in-space">
  <g>
    <path d="M366.4,104.618l9.089,19.592A37.375,37.375,0,0,1,379,139.654v51.759l36.053,88.98A16.76,16.76,0,0,1,399.321,303.3l-22.4-.26-10.644,51.235a16.732,16.732,0,0,1-16.159,13.255l-46.771.377.028,8.256a143.234,143.234,0,0,0,47.018,7.883c2,0,4.011-.055,6.013-.137a172.441,172.441,0,0,0,9.992-279.29Z"></path>
    <path d="M219.236,182.48a56.485,56.485,0,0,1-2.316,110.714,143.967,143.967,0,0,0,72.434,77.262l-.034-9.483a7.012,7.012,0,0,1,6.944-7.038l53.739-.46a2.7,2.7,0,0,0,2.563-2.158l11.814-56.754A6.988,6.988,0,0,1,371.232,289h.082l28.159,1h.036a2.824,2.824,0,0,0,2.2-1.5,3.065,3.065,0,0,0,.285-2.713l-36.613-90.307a7.161,7.161,0,0,1-.381-2.695V139.654a23.279,23.279,0,0,0-2.236-9.6l-15.2-32.834a143.389,143.389,0,0,0-128.331,85.26Z"></path>
    <path d="M206.892,218.708a18.9,18.9,0,1,0,18.9,18.9A18.919,18.919,0,0,0,206.892,218.708Z"></path>
    <path d="M189.229 398H331.553c.482 0 .967-.558 1.445-.781A157.473 157.473 0 0 1 202.221 293.953a56.512 56.512 0 0 1 2.357-112.781 157.535 157.535 0 0 1 128.3-97.064 171.459 171.459 0 0 0-72.487-16.025c-95.1 0-172.47 77.548-172.47 172.648A172.891 172.891 0 0 0 189.229 398zM135 426H270.914a7 7 0 0 1 0 14H135v45H386V470H238.914a7 7 0 0 1 0-14H386V412H135z"></path>
    <path d="M206.892,195.105a42.5,42.5,0,1,0,42.5,42.5A42.548,42.548,0,0,0,206.892,195.105Zm0,75.4a32.9,32.9,0,1,1,32.9-32.9A32.935,32.935,0,0,1,206.892,270.5Z"></path>
    <path d="M406.021,74.971,402.294,96.7a7,7,0,0,0,10.157,7.379l19.516-10.26,19.516,10.26A7,7,0,0,0,461.641,96.7l-3.728-21.732L473.7,59.581a7,7,0,0,0-3.879-11.94L448,44.47,438.244,24.7a7,7,0,0,0-12.555,0L415.932,44.47l-21.821,3.171a7,7,0,0,0-3.879,11.94Z"></path>
    <circle cx="60.967" cy="121.918" r="17"></circle>
    <circle cx="467.967" cy="407.204" r="26.47"></circle>
    <path d="M97.1 433.958l-21.821-3.171-9.757-19.772a7 7 0 0 0-12.555 0l-9.758 19.772-21.82 3.171a7 7 0 0 0-3.879 11.94l15.788 15.391-3.727 21.732A7 7 0 0 0 39.725 490.4L59.24 480.139 78.756 490.4a7 7 0 0 0 10.157-7.379l-3.726-21.732L100.975 445.9a7 7 0 0 0-3.879-11.94zM29 414.879a7 7 0 0 0 7-7V387.832a45.812 45.812 0 0 1 13.594-32.527l5.644-5.586a6.984 6.984 0 1 0-9.855-9.9l-5.7 5.585A59.715 59.715 0 0 0 22 387.832v20.047A7 7 0 0 0 29 414.879zM483.878 84.587a7 7 0 0 0-12.336 6.622l7.135 13.291a32.669 32.669 0 0 1 2.511 25.039l-1.716 5.691a7 7 0 1 0 13.4 4.042l1.716-5.692a46.584 46.584 0 0 0-3.579-35.7z"></path>
  </g>
</svg>
