<svg xmlns="http://www.w3.org/2000/svg" fill-rule="evenodd" stroke-linejoin="round" stroke-miterlimit="2" clip-rule="evenodd" viewBox="0 0 512 512" id="space">
  <path d="M251.267,60.842L251.267,72C208.602,74.551 175.771,109.545 174.793,152.698L141.521,188.743C128.635,190.786 117.758,193.166 109.435,195.789C101.626,198.25 95.905,201.02 92.538,203.821C90.983,205.114 89.837,206.468 89.049,207.843L83.751,207.843C69.306,207.843 57.029,217.204 52.663,230.185L45.226,230.185C36.577,230.185 29.555,237.207 29.555,245.856C29.555,245.856 29.555,282.719 29.555,282.719C29.555,291.368 36.577,298.39 45.226,298.39L51.031,298.39C52.15,315.475 66.383,329.008 83.751,329.008L92.124,329.008C94.625,352.574 114.587,370.958 138.81,370.958C138.913,370.958 139.017,370.957 139.121,370.956C141.689,373.738 145.269,376.435 149.755,378.966L103.463,450.795L103.4,450.802C102.602,450.903 101.811,451.041 101.028,451.222C99.585,451.556 98.175,452.028 96.822,452.63C94.42,453.699 92.205,455.177 90.292,456.979C88.349,458.81 86.721,460.973 85.503,463.349C84.5,465.306 83.782,467.4 83.365,469.558L83.363,469.565C71.147,472.16 61.972,483.017 61.972,496C61.972,498.76 64.212,501 66.972,501C67.06,501 67.147,500.998 67.234,500.993C67.321,500.998 67.408,501 67.496,501L146.151,501C148.91,501 151.151,498.76 151.151,496C151.151,495.116 150.921,494.285 150.518,493.565C149.455,481.678 140.679,471.996 129.235,469.565L129.234,469.558C128.839,467.516 128.175,465.531 127.254,463.665C126.403,461.94 125.338,460.322 124.091,458.857C122.819,457.362 121.36,456.027 119.757,454.894C118.139,453.751 116.378,452.818 114.526,452.117L114.511,452.111L158.83,383.343C161.99,384.656 165.423,385.899 169.109,387.056C175.458,389.05 182.585,390.829 190.35,392.351C197.847,410.66 221.854,424.949 251.267,426.416L251.267,451.161L251.208,451.174C249.138,451.636 247.134,452.375 245.264,453.377C243.159,454.505 241.229,455.957 239.561,457.666C237.907,459.36 236.512,461.303 235.439,463.412C234.453,465.35 233.746,467.423 233.333,469.558L233.331,469.565C221.116,472.16 211.94,483.017 211.94,496L211.94,496.032L211.941,496.065L211.941,496.097L211.942,496.129L211.943,496.161L211.944,496.193L211.945,496.225L211.947,496.257L211.948,496.289L211.95,496.321L211.952,496.353L211.955,496.384L211.957,496.416L211.96,496.448L211.963,496.479L211.966,496.511L211.969,496.542L211.973,496.574L211.976,496.605L211.98,496.636L211.984,496.668L211.989,496.699L211.993,496.73L211.998,496.761L212.003,496.792L212.008,496.823L212.013,496.854L212.018,496.885L212.024,496.915L212.03,496.946L212.036,496.977L212.042,497.007L212.048,497.038L212.055,497.068L212.061,497.098L212.068,497.129L212.075,497.159L212.083,497.189L212.09,497.219L212.098,497.249L212.105,497.279L212.113,497.309L212.122,497.338L212.13,497.368L212.138,497.398L212.147,497.427L212.156,497.457L212.165,497.486L212.174,497.515L212.184,497.545L212.193,497.574L212.203,497.603L212.213,497.632L212.223,497.661L212.233,497.69L212.244,497.718L212.254,497.747L212.265,497.776L212.276,497.804L212.287,497.833L212.298,497.861L212.31,497.889L212.322,497.917L212.333,497.945L212.345,497.973L212.357,498.001L212.37,498.029L212.382,498.057L212.395,498.085L212.407,498.112L212.42,498.14L212.433,498.167L212.447,498.194L212.46,498.221L212.474,498.248L212.487,498.275L212.501,498.302L212.515,498.329L212.53,498.356L212.544,498.382L212.558,498.409L212.573,498.435L212.588,498.462L212.603,498.488L212.618,498.514L212.633,498.54L212.649,498.566L212.664,498.592L212.68,498.618L212.696,498.643L212.712,498.669L212.728,498.694L212.745,498.719L212.761,498.745L212.778,498.77L212.795,498.795L212.811,498.82L212.829,498.844L212.846,498.869L212.863,498.894L212.881,498.918L212.898,498.942L212.916,498.967L212.934,498.991L212.952,499.015L212.97,499.039L212.989,499.062L213.007,499.086L213.026,499.11L213.045,499.133L213.063,499.156L213.082,499.18L213.102,499.203L213.121,499.226L213.14,499.249L213.16,499.271L213.18,499.294L213.2,499.317L213.22,499.339L213.24,499.361L213.26,499.383L213.28,499.405L213.301,499.427L213.321,499.449L213.342,499.471L213.363,499.492L213.384,499.514L213.405,499.535L213.427,499.556L213.448,499.577L213.469,499.598L213.491,499.619L213.513,499.639L213.535,499.66L213.557,499.68L213.579,499.7L213.601,499.721L213.624,499.741L213.646,499.76L213.669,499.78L213.691,499.8L213.714,499.819L213.737,499.838L213.76,499.858L213.784,499.877L213.807,499.896L213.83,499.914L213.854,499.933L213.878,499.951L213.901,499.97L213.925,499.988L213.949,500.006L213.973,500.024L213.998,500.042L214.022,500.06L214.046,500.077L214.071,500.094L214.096,500.112L214.12,500.129L214.145,500.146L214.17,500.162L214.195,500.179L214.221,500.195L214.246,500.212L214.271,500.228L214.297,500.244L214.323,500.26L214.348,500.276L214.374,500.291L214.4,500.307L214.426,500.322L214.452,500.337L214.478,500.352L214.505,500.367L214.531,500.382L214.558,500.396L214.584,500.411L214.611,500.425L214.638,500.439L214.665,500.453L214.692,500.466L214.719,500.48L214.746,500.493L214.773,500.507L214.801,500.52L214.828,500.533L214.856,500.545L214.883,500.558L214.911,500.57L214.939,500.583L214.967,500.595L214.995,500.607L215.023,500.619L215.051,500.63L215.079,500.642L215.107,500.653L215.136,500.664L215.164,500.675L215.193,500.686L215.222,500.696L215.25,500.707L215.279,500.717L215.308,500.727L215.337,500.737L215.366,500.747L215.395,500.756L215.425,500.766L215.454,500.775L215.483,500.784L215.513,500.793L215.542,500.802L215.572,500.81L215.602,500.819L215.631,500.827L215.661,500.835L215.691,500.842L215.721,500.85L215.751,500.858L215.781,500.865L215.811,500.872L215.842,500.879L215.872,500.885L215.902,500.892L215.933,500.898L215.963,500.904L215.994,500.91L216.025,500.916L216.055,500.922L216.086,500.927L216.117,500.932L216.148,500.938L216.179,500.942L216.21,500.947L216.241,500.951L216.272,500.956L216.304,500.96L216.335,500.964L216.366,500.967L216.398,500.971L216.429,500.974L216.461,500.977L216.492,500.98L216.524,500.983L216.556,500.985L216.587,500.988L216.619,500.99L216.651,500.992L216.683,500.993L216.715,500.995L216.747,500.996L216.779,500.997L216.811,500.998L216.843,500.999L216.876,501L216.908,501L216.94,501L295.595,501C298.041,501 300.08,499.239 300.511,496.916L300.517,496.885L300.522,496.854L300.527,496.823L300.532,496.792L300.537,496.761L300.542,496.73L300.546,496.699L300.551,496.668L300.555,496.636L300.559,496.605L300.562,496.574L300.566,496.542L300.569,496.511L300.572,496.479L300.575,496.448L300.578,496.416L300.58,496.384L300.583,496.353L300.585,496.321L300.587,496.289L300.588,496.257L300.59,496.225L300.591,496.193L300.592,496.161L300.593,496.129L300.594,496.097L300.594,496.065L300.595,496.032L300.595,496C300.595,483.017 291.419,472.16 279.203,469.565L279.202,469.558C278.789,467.423 278.082,465.35 277.096,463.412C276.023,461.303 274.627,459.36 272.974,457.666C271.305,455.957 269.376,454.505 267.271,453.377C265.401,452.375 263.397,451.636 261.327,451.174L261.267,451.161L261.267,426.416C290.683,424.95 314.697,410.659 322.186,392.351C329.95,390.829 337.077,389.05 343.426,387.056C347.112,385.899 350.545,384.656 353.705,383.343L398.023,452.111L398.009,452.117C396.157,452.818 394.396,453.751 392.778,454.894C391.175,456.027 389.716,457.362 388.444,458.857C387.197,460.322 386.132,461.94 385.28,463.665C384.36,465.531 383.696,467.516 383.301,469.558L383.3,469.565C371.084,472.16 361.908,483.017 361.908,496L361.909,496.032L361.909,496.065L361.909,496.097L361.91,496.129L361.911,496.161L361.912,496.193L361.913,496.225L361.915,496.257L361.917,496.289L361.919,496.321L361.921,496.353L361.923,496.384L361.926,496.416L361.928,496.448L361.931,496.479L361.934,496.511L361.938,496.542L361.941,496.574L361.946,496.615L361.95,496.647L361.954,496.678L361.958,496.709L361.963,496.741L361.968,496.772L361.973,496.802L361.978,496.834L361.983,496.865L361.989,496.896L361.994,496.926L362,496.957L362.006,496.988L362.013,497.019L362.019,497.049L362.026,497.08L362.032,497.111L362.039,497.141L362.047,497.172L362.058,497.219L362.066,497.249L362.074,497.279L362.082,497.309L362.09,497.338L362.098,497.368L362.107,497.398L362.115,497.427L362.124,497.457L362.133,497.486L362.143,497.515L362.152,497.545L362.162,497.574L362.171,497.603L362.181,497.632L362.191,497.661L362.202,497.69L362.212,497.718L362.223,497.747L362.233,497.776L362.244,497.804L362.255,497.833L362.267,497.861L362.278,497.889L362.29,497.917L362.302,497.945L362.314,497.973L362.326,498.001L362.338,498.029L362.35,498.057L362.363,498.085L362.376,498.112L362.389,498.14L362.402,498.167L362.415,498.194L362.428,498.221L362.442,498.248L362.456,498.275L362.47,498.302L362.484,498.329L362.498,498.356L362.512,498.382L362.527,498.409L362.541,498.435L362.556,498.462L362.571,498.488L362.586,498.514L362.602,498.54L362.617,498.566L362.633,498.592L362.648,498.618L362.664,498.643L362.68,498.669L362.697,498.694L362.713,498.719L362.729,498.745L362.746,498.77L362.763,498.795L362.78,498.82L362.797,498.844L362.814,498.869L362.831,498.894L362.849,498.918L362.867,498.942L362.884,498.967L362.902,498.991L362.92,499.015L362.939,499.039L362.957,499.062L362.975,499.086L362.994,499.11L363.013,499.133L363.032,499.156L363.051,499.18L363.07,499.203L363.089,499.226L363.109,499.249L363.128,499.271L363.148,499.294L363.168,499.317L363.188,499.339L363.208,499.361L363.228,499.383L363.249,499.405L363.269,499.427L363.29,499.449L363.311,499.471L363.331,499.492L363.352,499.514L363.374,499.535L363.395,499.556L363.416,499.577L363.438,499.598L363.459,499.619L363.481,499.639L363.503,499.66L363.525,499.68L363.547,499.7L363.57,499.721L363.592,499.741L363.614,499.76L363.637,499.78L363.66,499.8L363.683,499.819L363.706,499.838L363.729,499.858L363.752,499.877L363.775,499.896L363.799,499.914L363.822,499.933L363.846,499.951L363.87,499.97L363.894,499.988L363.918,500.006L363.942,500.024L363.966,500.042L363.99,500.06L364.015,500.077L364.039,500.094L364.064,500.112L364.098,500.135L364.123,500.152L364.148,500.169L364.173,500.185L364.199,500.202L364.224,500.218L364.249,500.234L364.275,500.25L364.301,500.266L364.326,500.281L364.352,500.297L364.378,500.313L364.405,500.328L364.431,500.343L364.457,500.358L364.483,500.372L364.51,500.387L364.536,500.402L364.563,500.416L364.606,500.439L364.633,500.453L364.66,500.466L364.687,500.48L364.714,500.493L364.742,500.507L364.769,500.52L364.796,500.533L364.824,500.545L364.852,500.558L364.879,500.57L364.907,500.583L364.935,500.595L364.963,500.607L364.991,500.619L365.019,500.63L365.047,500.642L365.076,500.653L365.104,500.664L365.133,500.675L365.161,500.686L365.19,500.696L365.219,500.707L365.248,500.717L365.277,500.727L365.306,500.737L365.335,500.747L365.364,500.756L365.393,500.766L365.422,500.775L365.452,500.784L365.481,500.793L365.511,500.802L365.54,500.81L365.57,500.819L365.6,500.827L365.63,500.835L365.659,500.842L365.689,500.85L365.72,500.858L365.75,500.865L365.78,500.872L365.81,500.879L365.84,500.885L365.871,500.892L365.901,500.898L365.932,500.904L365.962,500.91L365.993,500.916L366.024,500.922L366.055,500.927L366.086,500.932L366.116,500.938L366.147,500.942L366.178,500.947L366.21,500.951L366.241,500.956L366.272,500.96L366.303,500.964L366.335,500.967L366.366,500.971L366.398,500.974L366.429,500.977L366.461,500.98L366.492,500.983L366.524,500.985L366.556,500.988L366.588,500.99L366.619,500.992L366.651,500.993L366.683,500.995L366.715,500.996L366.747,500.997L366.779,500.998L366.812,500.999L366.844,501L366.876,501L366.908,501L445.563,501C448.01,501 450.048,499.239 450.479,496.916L450.485,496.885L450.49,496.854L450.496,496.823L450.501,496.792L450.506,496.761L450.51,496.73L450.515,496.699L450.519,496.668L450.523,496.636L450.527,496.605L450.531,496.574L450.534,496.542L450.537,496.511L450.54,496.479L450.543,496.448L450.546,496.416L450.549,496.384L450.551,496.353L450.553,496.321L450.555,496.289L450.557,496.257L450.558,496.225L450.559,496.193L450.561,496.161L450.562,496.129L450.562,496.097L450.563,496.065L450.563,496.032L450.563,496C450.563,483.017 441.388,472.16 429.172,469.565L429.17,469.558C428.753,467.4 428.035,465.306 427.032,463.349C425.814,460.973 424.186,458.81 422.243,456.979C420.33,455.177 418.114,453.699 415.713,452.63C414.36,452.028 412.95,451.556 411.507,451.222C410.724,451.041 409.932,450.903 409.135,450.802L409.072,450.795L362.78,378.966C367.266,376.435 370.846,373.738 373.414,370.956C373.518,370.957 373.622,370.958 373.725,370.958C397.948,370.958 417.91,352.574 420.411,329.008L428.783,329.008C446.152,329.008 460.385,315.475 461.504,298.39L466.774,298.39C475.423,298.39 482.445,291.368 482.445,282.719C482.445,282.719 482.445,245.856 482.445,245.856C482.445,237.207 475.423,230.185 466.774,230.185L459.872,230.185C455.506,217.204 443.229,207.843 428.783,207.843L423.486,207.843C422.698,206.468 421.552,205.114 419.997,203.821C416.629,201.02 410.909,198.25 403.1,195.789C395.088,193.264 384.709,190.964 372.444,188.972L337.741,152.648C336.74,109.517 303.914,74.545 261.267,72L261.267,60.842C272.767,58.521 281.437,48.35 281.437,36.17C281.437,22.278 270.159,11 256.267,11C242.376,11 231.098,22.278 231.098,36.17C231.098,48.35 239.768,58.521 251.267,60.842ZM139.879,491C137.74,484.041 131.259,478.977 123.603,478.977L88.995,478.977C81.34,478.977 74.858,484.041 72.719,491L139.879,491ZM289.847,491C287.709,484.041 281.227,478.977 273.572,478.977L238.963,478.977C231.308,478.977 224.826,484.041 222.687,491L289.847,491ZM439.816,491C437.677,484.041 431.195,478.977 423.54,478.977L388.932,478.977C381.276,478.977 374.794,484.041 372.656,491L439.816,491ZM268.651,468.977C266.671,464.082 261.87,460.624 256.267,460.624C250.665,460.624 245.864,464.082 243.884,468.977L268.651,468.977ZM418.619,468.977C416.639,464.082 411.838,460.624 406.236,460.624C400.633,460.624 395.832,464.082 393.852,468.977L418.619,468.977ZM118.683,468.977C116.703,464.082 111.901,460.624 106.299,460.624C100.697,460.624 95.896,464.082 93.916,468.977L118.683,468.977ZM202.876,394.496C205.39,398.037 208.747,401.266 212.744,404.101C223.602,411.803 239.102,416.54 256.267,416.54C273.362,416.54 288.804,411.842 299.656,404.196C303.712,401.339 307.116,398.077 309.659,394.496C293.589,396.878 275.454,398.224 256.267,398.224C237.081,398.224 218.946,396.878 202.876,394.496ZM302.953,329.008C300.453,352.574 280.49,370.958 256.267,370.958C232.045,370.958 212.082,352.574 209.582,329.008L185.495,329.008C183.479,348.014 170.104,363.649 152.296,368.988C154.084,370.129 156.111,371.228 158.356,372.287C158.792,372.417 159.217,372.61 159.619,372.868C163.28,374.513 167.471,376.06 172.105,377.516C193.164,384.129 223.093,388.224 256.267,388.224C289.442,388.224 319.371,384.129 340.43,377.516C345.064,376.06 349.255,374.513 352.916,372.868C353.317,372.61 353.742,372.417 354.179,372.287C356.423,371.228 358.451,370.129 360.239,368.988C342.431,363.649 329.056,348.014 327.04,329.008L302.953,329.008ZM256.267,287.059C276.66,287.059 293.217,303.616 293.217,324.008C293.217,344.401 276.66,360.958 256.267,360.958C235.875,360.958 219.318,344.401 219.318,324.008C219.318,303.616 235.875,287.059 256.267,287.059ZM138.81,287.059C159.203,287.059 175.759,303.616 175.759,324.008C175.759,344.401 159.203,360.958 138.81,360.958C118.417,360.958 101.861,344.401 101.861,324.008C101.861,303.616 118.417,287.059 138.81,287.059ZM373.725,287.059C394.118,287.059 410.674,303.616 410.674,324.008C410.674,344.401 394.118,360.958 373.725,360.958C353.332,360.958 336.776,344.401 336.776,324.008C336.776,303.616 353.332,287.059 373.725,287.059ZM373.725,301.311C361.198,301.311 351.028,311.481 351.028,324.008C351.028,336.535 361.198,346.706 373.725,346.706C386.252,346.706 396.422,336.535 396.422,324.008C396.422,311.481 386.252,301.311 373.725,301.311ZM256.267,301.311C243.74,301.311 233.57,311.481 233.57,324.008C233.57,336.535 243.74,346.706 256.267,346.706C268.794,346.706 278.965,336.535 278.965,324.008C278.965,311.481 268.794,301.311 256.267,301.311ZM138.81,301.311C126.283,301.311 116.112,311.481 116.112,324.008C116.112,336.535 126.283,346.706 138.81,346.706C151.337,346.706 161.507,336.535 161.507,324.008C161.507,311.481 151.337,301.311 138.81,301.311ZM256.267,311.311C263.275,311.311 268.965,317.001 268.965,324.008C268.965,331.016 263.275,336.706 256.267,336.706C249.26,336.706 243.57,331.016 243.57,324.008C243.57,317.001 249.26,311.311 256.267,311.311ZM138.81,311.311C145.818,311.311 151.507,317.001 151.507,324.008C151.507,331.016 145.818,336.706 138.81,336.706C131.802,336.706 126.112,331.016 126.112,324.008C126.112,317.001 131.802,311.311 138.81,311.311ZM373.725,311.311C380.733,311.311 386.422,317.001 386.422,324.008C386.422,331.016 380.733,336.706 373.725,336.706C366.717,336.706 361.028,331.016 361.028,324.008C361.028,317.001 366.717,311.311 373.725,311.311ZM139.552,254.549L60.96,254.549L60.96,296.217C60.96,308.796 71.173,319.008 83.751,319.008L92.124,319.008C94.625,295.443 114.587,277.059 138.81,277.059C163.032,277.059 182.995,295.443 185.495,319.008L209.582,319.008C212.082,295.443 232.045,277.059 256.267,277.059C280.49,277.059 300.453,295.443 302.953,319.008L327.04,319.008C329.54,295.443 349.503,277.059 373.725,277.059C397.948,277.059 417.91,295.443 420.411,319.008L428.783,319.008C441.362,319.008 451.575,308.796 451.575,296.217L451.575,254.549L372.983,254.549L372.983,257.012C372.983,263.787 367.483,269.288 360.708,269.288L151.827,269.288C145.052,269.288 139.552,263.787 139.552,257.012L139.552,254.549ZM461.572,240.185C461.574,240.334 461.575,240.484 461.575,240.634L461.575,288.39L466.774,288.39C469.904,288.39 472.445,285.849 472.445,282.719L472.445,245.856C472.445,242.726 469.904,240.185 466.774,240.185L461.572,240.185ZM50.963,240.185L45.226,240.185C42.096,240.185 39.555,242.726 39.555,245.856L39.555,282.719C39.555,285.849 42.096,288.39 45.226,288.39L50.96,288.39L50.96,240.634C50.96,240.484 50.961,240.334 50.963,240.185ZM362.983,242.461L362.983,257.012C362.983,258.268 361.964,259.288 360.708,259.288C360.708,259.288 151.827,259.288 151.827,259.288C150.571,259.288 149.552,258.268 149.552,257.012L149.552,242.461C149.552,241.205 150.571,240.185 151.827,240.185L360.708,240.185C361.964,240.185 362.983,241.205 362.983,242.461ZM428.783,217.843L83.751,217.843C71.173,217.843 60.96,228.055 60.96,240.634L60.96,244.549L139.552,244.549L139.552,242.461C139.552,235.686 145.052,230.185 151.827,230.185C151.827,230.185 360.708,230.185 360.708,230.185C367.483,230.185 372.983,235.686 372.983,242.461L372.983,244.549L451.575,244.549L451.575,240.634C451.575,228.055 441.362,217.843 428.783,217.843ZM291.476,191.721C280.141,191.314 268.358,191.1 256.267,191.1C244.177,191.1 232.394,191.314 221.059,191.721C220.929,191.731 220.798,191.737 220.665,191.737L220.636,191.736C191.844,192.783 165.944,195.072 145.205,198.253C144.937,198.317 144.664,198.359 144.39,198.379C131.537,200.378 120.704,202.722 112.441,205.326C109.839,206.146 107.51,206.983 105.481,207.843L407.054,207.843C405.025,206.983 402.696,206.146 400.094,205.326C392.144,202.821 381.815,200.556 369.593,198.607C369.321,198.586 369.05,198.544 368.784,198.479C347.807,195.18 321.366,192.807 291.899,191.736L291.87,191.737C291.737,191.737 291.606,191.731 291.476,191.721ZM296.87,159.677L296.87,181.933C318.79,182.849 338.973,184.489 356.426,186.681L330.627,159.677L296.87,159.677ZM181.959,159.677L157.153,186.551C174.364,184.424 194.179,182.831 215.665,181.933L215.665,159.677L181.959,159.677ZM286.87,181.569L286.87,159.677L256.267,159.677L225.665,159.677L225.665,181.569C235.584,181.262 245.813,181.1 256.267,181.1C266.722,181.1 276.951,181.262 286.87,181.569ZM327.602,149.677C325.13,111.834 294.759,81.851 256.267,81.851C217.776,81.851 187.405,111.834 184.933,149.677L327.602,149.677ZM283.166,108.819C295.19,115.567 304.433,126.693 308.723,140.032C309.568,142.659 312.387,144.105 315.014,143.26C317.641,142.415 319.088,139.597 318.243,136.97C313.175,121.214 302.262,108.069 288.061,100.098C285.655,98.748 282.604,99.605 281.254,102.011C279.903,104.418 280.76,107.468 283.166,108.819ZM262.11,102.113C264.791,102.396 267.415,102.872 269.968,103.526C272.641,104.211 275.368,102.597 276.053,99.924C276.738,97.251 275.124,94.524 272.451,93.839C269.432,93.066 266.33,92.503 263.16,92.169C260.415,91.879 257.952,93.872 257.663,96.616C257.373,99.361 259.366,101.824 262.11,102.113ZM256.267,21C264.64,21 271.437,27.797 271.437,36.17C271.437,44.542 264.64,51.339 256.267,51.339C247.895,51.339 241.098,44.542 241.098,36.17C241.098,27.797 247.895,21 256.267,21Z"></path>
</svg>
