<svg xmlns="http://www.w3.org/2000/svg" fill-rule="evenodd" stroke-linejoin="round" stroke-miterlimit="2" clip-rule="evenodd" viewBox="0 0 512 512" id="space">
  <path d="M75.836,286.875C26.879,335.831 26.879,415.325 75.836,464.281C124.793,513.238 204.286,513.238 253.243,464.281C253.243,464.281 431.467,286.058 431.467,286.058C440.133,277.391 440.133,263.319 431.467,254.653C422.8,245.987 408.728,245.987 400.062,254.653L322.749,331.966C317.985,336.73 310.25,336.73 305.486,331.966C300.722,327.203 300.722,319.467 305.486,314.704L435.602,184.588C444.268,175.922 444.268,161.85 435.602,153.183C426.935,144.517 412.863,144.517 404.197,153.183L311.321,246.059C306.557,250.823 298.822,250.823 294.058,246.059C289.294,241.296 289.294,233.561 294.058,228.797L362.251,160.604C370.918,151.937 370.918,137.865 362.251,129.199C353.585,120.533 339.513,120.533 330.847,129.199L233.152,226.893C228.388,231.657 220.653,231.657 215.89,226.893C211.126,222.129 211.126,214.394 215.89,209.631L365.955,59.565C374.622,50.898 374.622,36.826 365.955,28.16C357.289,19.494 343.217,19.494 334.551,28.16L75.836,286.875ZM246.172,293.946C291.226,339 291.226,412.156 246.172,457.21C201.118,502.265 127.961,502.265 82.907,457.21C37.853,412.156 37.853,339 82.907,293.946C127.961,248.892 201.118,248.892 246.172,293.946ZM234.733,305.385C195.992,266.644 133.087,266.644 94.346,305.385C55.606,344.126 55.606,407.031 94.346,445.771C133.087,484.512 195.992,484.512 234.733,445.771C273.473,407.031 273.473,344.126 234.733,305.385L234.733,305.385ZM353.55,407.882C337.582,407.882 324.618,420.846 324.618,436.814C324.618,452.782 337.582,465.746 353.55,465.746C369.518,465.746 382.482,452.782 382.482,436.814C382.482,420.846 369.518,407.882 353.55,407.882ZM193.319,460.089C194.776,452.085 192.416,443.518 186.233,437.335C176.228,427.33 159.983,427.33 149.977,437.335C143.219,444.093 141.027,453.699 143.398,462.305C159.844,466.293 177.207,465.555 193.319,460.089ZM126.955,294.59C117.703,298.879 109.04,304.833 101.417,312.456C93.241,320.632 86.983,330.006 82.645,340.015C87.763,340.888 92.67,343.299 96.618,347.247C106.753,357.382 106.753,373.84 96.618,383.975C91.159,389.434 83.866,391.954 76.716,391.532C79.838,408.818 88.071,425.354 101.417,438.7C110.587,447.869 121.261,454.625 132.647,458.967C131.64,448.716 135.061,438.11 142.906,430.264C156.814,416.357 179.397,416.357 193.304,430.264C200.344,437.304 203.822,446.566 203.734,455.8C212.378,451.581 220.481,445.88 227.662,438.7C262.5,403.862 262.5,347.294 227.662,312.456L227.662,312.456C223.537,308.331 219.107,304.695 214.445,301.547C213.75,311.764 209.501,321.782 201.699,329.584C184.569,346.713 156.755,346.713 139.625,329.584C130.054,320.012 125.829,307.104 126.955,294.59ZM353.55,417.882C363.999,417.882 372.482,426.365 372.482,436.814C372.482,447.263 363.999,455.746 353.55,455.746C343.101,455.746 334.618,447.263 334.618,436.814C334.618,426.365 343.101,417.882 353.55,417.882ZM208.819,202.559L358.884,52.494C363.648,47.73 363.648,39.995 358.884,35.231C354.121,30.467 346.386,30.467 341.622,35.231L117.646,259.207C162.89,241.022 216.613,250.245 253.243,286.875C289.872,323.504 299.096,377.228 280.911,422.472L424.396,278.987C429.159,274.223 429.159,266.488 424.396,261.724C419.632,256.96 411.897,256.96 407.133,261.724L329.82,339.037C321.153,347.704 307.081,347.704 298.415,339.037C289.749,330.371 289.749,316.299 298.415,307.633L428.531,177.517C433.294,172.753 433.294,165.018 428.531,160.254C423.767,155.491 416.032,155.491 411.268,160.254L318.392,253.13C309.725,261.797 295.653,261.797 286.987,253.13C278.321,244.464 278.321,230.392 286.987,221.726C286.987,221.726 355.18,153.533 355.18,153.533C359.944,148.769 359.944,141.034 355.18,136.27C350.416,131.506 342.681,131.506 337.918,136.27L240.223,233.964C231.557,242.631 217.485,242.631 208.819,233.964C200.152,225.298 200.152,211.226 208.819,202.559ZM385.301,408.652L399.327,394.625C401.278,392.674 401.278,389.505 399.327,387.554C397.376,385.603 394.207,385.603 392.256,387.554L378.23,401.58C376.278,403.532 376.278,406.7 378.23,408.652C380.181,410.603 383.349,410.603 385.301,408.652ZM214.479,365.763C205.758,357.042 191.597,357.042 182.876,365.763C174.155,374.484 174.155,388.645 182.876,397.366C191.597,406.087 205.758,406.087 214.479,397.366C223.2,388.645 223.2,374.484 214.479,365.763L214.479,365.763ZM207.408,372.834C212.226,377.653 212.226,385.476 207.408,390.295C202.589,395.113 194.765,395.113 189.947,390.295C185.128,385.476 185.128,377.653 189.947,372.834C194.765,368.016 202.589,368.016 207.408,372.834L207.408,372.834ZM410.445,383.507L443.681,350.272C445.632,348.32 445.632,345.152 443.681,343.201C441.729,341.249 438.561,341.249 436.609,343.201L403.374,376.436C401.423,378.387 401.423,381.556 403.374,383.507C405.325,385.458 408.494,385.458 410.445,383.507ZM79.11,349.667C76.003,359.955 74.791,370.694 75.474,381.337C80.431,382.206 85.721,380.73 89.547,376.904C95.779,370.671 95.779,360.551 89.547,354.318C86.648,351.419 82.908,349.869 79.11,349.667ZM454.62,339.332L471.418,322.534C473.369,320.583 473.369,317.414 471.418,315.463C469.467,313.512 466.298,313.512 464.347,315.463L447.549,332.261C445.598,334.212 445.598,337.381 447.549,339.332C449.5,341.283 452.669,341.283 454.62,339.332ZM204.428,295.699C183.641,285.326 159.64,283.565 137.76,290.415C135.023,301.554 138,313.817 146.696,322.513C159.923,335.74 181.401,335.74 194.628,322.513C201.965,315.175 205.231,305.298 204.428,295.699ZM171.159,104.883C155.191,104.883 142.227,117.847 142.227,133.815C142.227,149.783 155.191,162.747 171.159,162.747C187.127,162.747 200.091,149.783 200.091,133.815C200.091,117.847 187.127,104.883 171.159,104.883ZM171.159,114.883C181.608,114.883 190.091,123.367 190.091,133.815C190.091,144.264 181.608,152.747 171.159,152.747C160.71,152.747 152.227,144.264 152.227,133.815C152.227,123.367 160.71,114.883 171.159,114.883ZM202.91,105.653L216.936,91.627C218.887,89.675 218.887,86.507 216.936,84.555C214.985,82.604 211.816,82.604 209.865,84.555L195.839,98.582C193.887,100.533 193.887,103.702 195.839,105.653C197.79,107.604 200.958,107.604 202.91,105.653ZM228.054,80.509L261.29,47.273C263.241,45.322 263.241,42.153 261.29,40.202C259.338,38.251 256.17,38.251 254.219,40.202L220.983,73.437C219.032,75.389 219.032,78.557 220.983,80.509C222.934,82.46 226.103,82.46 228.054,80.509ZM272.229,36.333L289.027,19.536C290.978,17.584 290.978,14.416 289.027,12.464C287.076,10.513 283.907,10.513 281.956,12.464L265.158,29.262C263.207,31.214 263.207,34.382 265.158,36.333C267.109,38.285 270.278,38.285 272.229,36.333Z"></path>
</svg>
